<svg xmlns="http://www.w3.org/2000/svg" width="1440" height="900" viewBox="0 0 1440 900" role="img" aria-label="Ice Shot Deadeye 1-12 selected skill tree nodes">
<defs><pattern id="grid" width="44" height="44" patternUnits="userSpaceOnUse"><path d="M 44 0 L 0 0 0 44" fill="none" stroke="#263040" stroke-width="1"/></pattern><filter id="glow" x="-80%" y="-80%" width="260%" height="260%"><feGaussianBlur stdDeviation="4" result="blur"/><feMerge><feMergeNode in="blur"/><feMergeNode in="SourceGraphic"/></feMerge></filter></defs>
<rect width="100%" height="100%" fill="#0f1218"/>
<rect x="0" y="0" width="100%" height="100%" fill="url(#grid)" opacity="0.16"/>
<text x="36" y="42" fill="#f5d28d" font-family="Segoe UI, Arial, sans-serif" font-size="28" font-weight="700">Ice Shot Deadeye 1-12</text>
<text x="36" y="70" fill="#aeb7c8" font-family="Segoe UI, Arial, sans-serif" font-size="17">Gold path = allocated route, cyan ring = priority node, regular skill points: 15/15, ascendancy points: 0/8 separate</text>
<g>
<clipPath id="pane-0"><rect x="36" y="140" width="1368" height="708" rx="14"/></clipPath>
<rect x="36" y="88" width="1368" height="760" rx="18" fill="#151a22" stroke="#31394a"/>
<text x="58" y="122" fill="#dbe5f4" font-family="Segoe UI, Arial, sans-serif" font-size="18" font-weight="700">Passive tree route</text>
<g clip-path="url(#pane-0)">
<line x1="550.0" y1="274.7" x2="574.7" y2="317.5" stroke="#e9b95f" stroke-width="3.2" opacity="0.95"/>
<line x1="550.0" y1="274.7" x2="600.2" y2="273.2" stroke="#30394a" stroke-width="1.2" opacity="0.42"/>
<line x1="574.7" y1="317.5" x2="591.8" y2="434.7" stroke="#e9b95f" stroke-width="3.2" opacity="0.95"/>
<line x1="574.7" y1="317.5" x2="609.4" y2="353.2" stroke="#30394a" stroke-width="1.2" opacity="0.42"/>
<line x1="591.8" y1="434.7" x2="639.7" y2="517.7" stroke="#e9b95f" stroke-width="3.2" opacity="0.95"/>
<line x1="639.7" y1="517.7" x2="688.3" y2="601.8" stroke="#e9b95f" stroke-width="3.2" opacity="0.95"/>
<line x1="688.3" y1="601.8" x2="709.8" y2="453.6" stroke="#e9b95f" stroke-width="3.2" opacity="0.95"/>
<line x1="688.3" y1="601.8" x2="782.6" y2="604.1" stroke="#e9b95f" stroke-width="3.2" opacity="0.95"/>
<line x1="688.3" y1="601.8" x2="652.1" y2="668.4" stroke="#30394a" stroke-width="1.2" opacity="0.42"/>
<line x1="782.6" y1="604.1" x2="835.4" y2="665.9" stroke="#e9b95f" stroke-width="3.2" opacity="0.95"/>
<line x1="782.6" y1="604.1" x2="977.9" y2="607.9" stroke="#30394a" stroke-width="1.2" opacity="0.42"/>
<line x1="835.4" y1="665.9" x2="862.7" y2="713.3" stroke="#e9b95f" stroke-width="3.2" opacity="0.95"/>
<line x1="835.4" y1="665.9" x2="890.0" y2="665.9" stroke="#e9b95f" stroke-width="3.2" opacity="0.95"/>
<line x1="890.0" y1="665.9" x2="862.7" y2="681.7" stroke="#e9b95f" stroke-width="3.2" opacity="0.95"/>
<line x1="890.0" y1="665.9" x2="862.7" y2="713.3" stroke="#e9b95f" stroke-width="3.2" opacity="0.95"/>
<line x1="709.8" y1="453.6" x2="643.4" y2="387.2" stroke="#30394a" stroke-width="1.2" opacity="0.42"/>
<line x1="709.8" y1="453.6" x2="737.8" y2="435.6" stroke="#30394a" stroke-width="1.2" opacity="0.42"/>
<line x1="709.8" y1="453.6" x2="795.6" y2="488.7" stroke="#30394a" stroke-width="1.2" opacity="0.42"/>
<line x1="709.8" y1="453.6" x2="685.0" y2="411.3" stroke="#e9b95f" stroke-width="3.2" opacity="0.95"/>
<line x1="709.8" y1="453.6" x2="667.4" y2="428.9" stroke="#30394a" stroke-width="1.2" opacity="0.42"/>
<line x1="709.8" y1="453.6" x2="784.1" y2="446.3" stroke="#e9b95f" stroke-width="3.2" opacity="0.95"/>
<line x1="709.8" y1="453.6" x2="783.1" y2="510.3" stroke="#e9b95f" stroke-width="3.2" opacity="0.95"/>
<line x1="783.1" y1="510.3" x2="813.8" y2="550.1" stroke="#e9b95f" stroke-width="3.2" opacity="0.95"/>
<line x1="813.8" y1="550.1" x2="829.6" y2="522.8" stroke="#30394a" stroke-width="1.2" opacity="0.42"/>
<line x1="813.8" y1="550.1" x2="861.0" y2="566.5" stroke="#30394a" stroke-width="1.2" opacity="0.42"/>
<line x1="784.1" y1="446.3" x2="837.9" y2="441.0" stroke="#e9b95f" stroke-width="3.2" opacity="0.95"/>
<line x1="837.9" y1="441.0" x2="815.6" y2="391.7" stroke="#30394a" stroke-width="1.2" opacity="0.42"/>
<line x1="862.7" y1="713.3" x2="909.8" y2="725.9" stroke="#30394a" stroke-width="1.2" opacity="0.42"/>
<line x1="685.0" y1="411.3" x2="665.7" y2="364.9" stroke="#30394a" stroke-width="1.2" opacity="0.42"/>
<line x1="740.2" y1="299.6" x2="782.8" y2="323.9" stroke="#30394a" stroke-width="1.2" opacity="0.42"/>
<line x1="740.2" y1="299.6" x2="700.2" y2="269.1" stroke="#30394a" stroke-width="1.2" opacity="0.42"/>
<line x1="774.7" y1="661.5" x2="738.2" y2="666.3" stroke="#30394a" stroke-width="1.2" opacity="0.42"/>
<line x1="774.7" y1="661.5" x2="804.0" y2="683.9" stroke="#30394a" stroke-width="1.2" opacity="0.42"/>
<line x1="1015.6" y1="676.5" x2="998.9" y2="647.5" stroke="#30394a" stroke-width="1.2" opacity="0.42"/>
<line x1="950.0" y1="309.1" x2="896.4" y2="236.3" stroke="#30394a" stroke-width="1.2" opacity="0.42"/>
<line x1="700.2" y1="269.1" x2="645.6" y2="287.1" stroke="#30394a" stroke-width="1.2" opacity="0.42"/>
<line x1="423.3" y1="594.1" x2="478.8" y2="636.7" stroke="#30394a" stroke-width="1.2" opacity="0.42"/>
<line x1="799.9" y1="419.0" x2="772.5" y2="403.2" stroke="#30394a" stroke-width="1.2" opacity="0.42"/>
<line x1="983.1" y1="674.8" x2="998.9" y2="647.5" stroke="#30394a" stroke-width="1.2" opacity="0.42"/>
<line x1="983.1" y1="674.8" x2="966.7" y2="703.2" stroke="#30394a" stroke-width="1.2" opacity="0.42"/>
<line x1="578.3" y1="790.7" x2="612.4" y2="804.8" stroke="#30394a" stroke-width="1.2" opacity="0.42"/>
<line x1="578.3" y1="790.7" x2="564.4" y2="756.4" stroke="#30394a" stroke-width="1.2" opacity="0.42"/>
<line x1="772.5" y1="403.2" x2="737.8" y2="435.6" stroke="#30394a" stroke-width="1.2" opacity="0.42"/>
<line x1="772.5" y1="403.2" x2="783.2" y2="356.9" stroke="#30394a" stroke-width="1.2" opacity="0.42"/>
<line x1="652.1" y1="668.4" x2="677.2" y2="776.1" stroke="#30394a" stroke-width="1.2" opacity="0.42"/>
<line x1="652.1" y1="668.4" x2="738.2" y2="666.3" stroke="#30394a" stroke-width="1.2" opacity="0.42"/>
<line x1="734.2" y1="734.5" x2="739.0" y2="698.0" stroke="#30394a" stroke-width="1.2" opacity="0.42"/>
<line x1="856.6" y1="378.0" x2="782.8" y2="323.9" stroke="#30394a" stroke-width="1.2" opacity="0.42"/>
<line x1="856.6" y1="378.0" x2="887.3" y2="417.7" stroke="#30394a" stroke-width="1.2" opacity="0.42"/>
<line x1="896.4" y1="236.3" x2="782.8" y2="323.9" stroke="#30394a" stroke-width="1.2" opacity="0.42"/>
<line x1="896.4" y1="236.3" x2="799.2" y2="236.3" stroke="#30394a" stroke-width="1.2" opacity="0.42"/>
<line x1="896.4" y1="236.3" x2="953.4" y2="188.9" stroke="#30394a" stroke-width="1.2" opacity="0.42"/>
<line x1="677.2" y1="776.1" x2="596.5" y2="700.5" stroke="#30394a" stroke-width="1.2" opacity="0.42"/>
<line x1="677.2" y1="776.1" x2="750.3" y2="783.2" stroke="#30394a" stroke-width="1.2" opacity="0.42"/>
<line x1="542.0" y1="785.6" x2="564.4" y2="756.4" stroke="#30394a" stroke-width="1.2" opacity="0.42"/>
<line x1="542.0" y1="785.6" x2="546.8" y2="822.1" stroke="#30394a" stroke-width="1.2" opacity="0.42"/>
<line x1="739.0" y1="698.0" x2="738.2" y2="666.3" stroke="#30394a" stroke-width="1.2" opacity="0.42"/>
<line x1="733.7" y1="323.6" x2="782.8" y2="323.9" stroke="#30394a" stroke-width="1.2" opacity="0.42"/>
<line x1="733.7" y1="323.6" x2="683.9" y2="330.1" stroke="#30394a" stroke-width="1.2" opacity="0.42"/>
<line x1="841.2" y1="844.7" x2="799.9" y2="821.3" stroke="#30394a" stroke-width="1.2" opacity="0.42"/>
<line x1="841.2" y1="844.7" x2="909.8" y2="725.9" stroke="#30394a" stroke-width="1.2" opacity="0.42"/>
<line x1="841.2" y1="844.7" x2="899.8" y2="829.0" stroke="#30394a" stroke-width="1.2" opacity="0.42"/>
<line x1="965.5" y1="446.3" x2="887.3" y2="417.7" stroke="#30394a" stroke-width="1.2" opacity="0.42"/>
<line x1="778.1" y1="707.9" x2="808.8" y2="720.4" stroke="#30394a" stroke-width="1.2" opacity="0.42"/>
<line x1="977.9" y1="607.9" x2="902.3" y2="542.7" stroke="#30394a" stroke-width="1.2" opacity="0.42"/>
<line x1="977.9" y1="607.9" x2="909.8" y2="725.9" stroke="#30394a" stroke-width="1.2" opacity="0.42"/>
<line x1="977.9" y1="607.9" x2="919.6" y2="588.5" stroke="#30394a" stroke-width="1.2" opacity="0.42"/>
<line x1="1004.9" y1="437.5" x2="958.8" y2="396.6" stroke="#30394a" stroke-width="1.2" opacity="0.42"/>
<line x1="869.1" y1="356.4" x2="782.8" y2="323.9" stroke="#30394a" stroke-width="1.2" opacity="0.42"/>
<line x1="869.1" y1="356.4" x2="918.9" y2="363.1" stroke="#30394a" stroke-width="1.2" opacity="0.42"/>
<line x1="799.9" y1="821.3" x2="793.4" y2="771.7" stroke="#30394a" stroke-width="1.2" opacity="0.42"/>
<line x1="961.9" y1="828.2" x2="989.2" y2="796.6" stroke="#30394a" stroke-width="1.2" opacity="0.42"/>
<line x1="961.9" y1="828.2" x2="929.7" y2="829.0" stroke="#30394a" stroke-width="1.2" opacity="0.42"/>
<line x1="596.5" y1="700.5" x2="514.1" y2="712.4" stroke="#30394a" stroke-width="1.2" opacity="0.42"/>
<line x1="596.5" y1="700.5" x2="564.4" y2="756.4" stroke="#30394a" stroke-width="1.2" opacity="0.42"/>
<line x1="782.8" y1="323.9" x2="692.0" y2="299.6" stroke="#30394a" stroke-width="1.2" opacity="0.42"/>
<line x1="782.8" y1="323.9" x2="815.6" y2="391.7" stroke="#30394a" stroke-width="1.2" opacity="0.42"/>
<line x1="782.8" y1="323.9" x2="783.2" y2="356.9" stroke="#30394a" stroke-width="1.2" opacity="0.42"/>
<line x1="899.8" y1="829.0" x2="946.1" y2="785.0" stroke="#30394a" stroke-width="1.2" opacity="0.42"/>
<line x1="899.8" y1="829.0" x2="929.7" y2="829.0" stroke="#30394a" stroke-width="1.2" opacity="0.42"/>
<line x1="909.8" y1="725.9" x2="966.7" y2="703.2" stroke="#30394a" stroke-width="1.2" opacity="0.42"/>
<line x1="909.8" y1="725.9" x2="994.3" y2="748.2" stroke="#30394a" stroke-width="1.2" opacity="0.42"/>
<line x1="887.3" y1="417.7" x2="903.1" y2="390.4" stroke="#30394a" stroke-width="1.2" opacity="0.42"/>
<line x1="665.7" y1="364.9" x2="609.4" y2="353.2" stroke="#30394a" stroke-width="1.2" opacity="0.42"/>
<line x1="645.6" y1="287.1" x2="683.9" y2="330.1" stroke="#30394a" stroke-width="1.2" opacity="0.42"/>
<line x1="645.6" y1="287.1" x2="600.2" y2="273.2" stroke="#30394a" stroke-width="1.2" opacity="0.42"/>
<line x1="989.2" y1="796.6" x2="1009.1" y2="831.0" stroke="#30394a" stroke-width="1.2" opacity="0.42"/>
<line x1="989.2" y1="796.6" x2="946.1" y2="785.0" stroke="#30394a" stroke-width="1.2" opacity="0.42"/>
<line x1="997.4" y1="703.2" x2="966.7" y2="703.2" stroke="#30394a" stroke-width="1.2" opacity="0.42"/>
<line x1="703.3" y1="236.3" x2="600.2" y2="273.2" stroke="#30394a" stroke-width="1.2" opacity="0.42"/>
<line x1="703.3" y1="236.3" x2="799.2" y2="236.3" stroke="#30394a" stroke-width="1.2" opacity="0.42"/>
<line x1="612.4" y1="804.8" x2="580.2" y2="812.4" stroke="#30394a" stroke-width="1.2" opacity="0.42"/>
<line x1="902.3" y1="542.7" x2="845.4" y2="495.4" stroke="#30394a" stroke-width="1.2" opacity="0.42"/>
<line x1="424.2" y1="845.0" x2="426.0" y2="804.4" stroke="#30394a" stroke-width="1.2" opacity="0.42"/>
<line x1="576.0" y1="844.5" x2="546.8" y2="822.1" stroke="#30394a" stroke-width="1.2" opacity="0.42"/>
<line x1="478.8" y1="636.7" x2="514.1" y2="712.4" stroke="#30394a" stroke-width="1.2" opacity="0.42"/>
<line x1="918.9" y1="363.1" x2="958.8" y2="396.6" stroke="#30394a" stroke-width="1.2" opacity="0.42"/>
<line x1="918.9" y1="363.1" x2="903.1" y2="390.4" stroke="#30394a" stroke-width="1.2" opacity="0.42"/>
<line x1="845.4" y1="495.4" x2="829.6" y2="522.8" stroke="#30394a" stroke-width="1.2" opacity="0.42"/>
<line x1="845.4" y1="495.4" x2="795.6" y2="488.7" stroke="#30394a" stroke-width="1.2" opacity="0.42"/>
<line x1="777.6" y1="799.0" x2="793.4" y2="771.7" stroke="#30394a" stroke-width="1.2" opacity="0.42"/>
<line x1="793.4" y1="771.7" x2="750.3" y2="783.2" stroke="#30394a" stroke-width="1.2" opacity="0.42"/>
<line x1="861.0" y1="566.5" x2="919.6" y2="588.5" stroke="#30394a" stroke-width="1.2" opacity="0.42"/>
<line x1="609.4" y1="353.2" x2="621.1" y2="409.6" stroke="#30394a" stroke-width="1.2" opacity="0.42"/>
<line x1="808.8" y1="720.4" x2="804.0" y2="683.9" stroke="#30394a" stroke-width="1.2" opacity="0.42"/>
<line x1="667.4" y1="428.9" x2="621.1" y2="409.6" stroke="#30394a" stroke-width="1.2" opacity="0.42"/>
<circle cx="550.0" cy="274.7" r="6.5" fill="#e9b95f" stroke="#f8d987" stroke-width="1.4" opacity="1"/>
<circle cx="574.7" cy="317.5" r="6.5" fill="#e9b95f" stroke="#f8d987" stroke-width="1.4" opacity="1"/>
<circle cx="591.8" cy="434.7" r="6.5" fill="#e9b95f" stroke="#f8d987" stroke-width="1.4" opacity="1"/>
<circle cx="639.7" cy="517.7" r="6.5" fill="#e9b95f" stroke="#f8d987" stroke-width="1.4" opacity="1"/>
<circle cx="688.3" cy="601.8" r="6.5" fill="#e9b95f" stroke="#f8d987" stroke-width="1.4" opacity="1"/>
<circle cx="782.6" cy="604.1" r="6.5" fill="#e9b95f" stroke="#f8d987" stroke-width="1.4" opacity="1"/>
<circle cx="835.4" cy="665.9" r="10" fill="#45e3ff" stroke="#f8d987" stroke-width="3" opacity="1" filter="url(#glow)"/>
<circle cx="890.0" cy="665.9" r="10" fill="#45e3ff" stroke="#f8d987" stroke-width="3" opacity="1" filter="url(#glow)"/>
<circle cx="862.7" cy="681.7" r="10" fill="#45e3ff" stroke="#f8d987" stroke-width="3" opacity="1" filter="url(#glow)"/>
<circle cx="709.8" cy="453.6" r="10" fill="#45e3ff" stroke="#f8d987" stroke-width="3" opacity="1" filter="url(#glow)"/>
<circle cx="783.1" cy="510.3" r="10" fill="#45e3ff" stroke="#f8d987" stroke-width="3" opacity="1" filter="url(#glow)"/>
<circle cx="813.8" cy="550.1" r="10" fill="#45e3ff" stroke="#f8d987" stroke-width="3" opacity="1" filter="url(#glow)"/>
<circle cx="784.1" cy="446.3" r="6.5" fill="#e9b95f" stroke="#f8d987" stroke-width="1.4" opacity="1"/>
<circle cx="837.9" cy="441.0" r="10" fill="#45e3ff" stroke="#f8d987" stroke-width="3" opacity="1" filter="url(#glow)"/>
<circle cx="862.7" cy="713.3" r="10" fill="#45e3ff" stroke="#f8d987" stroke-width="3" opacity="1" filter="url(#glow)"/>
<circle cx="685.0" cy="411.3" r="10" fill="#45e3ff" stroke="#f8d987" stroke-width="3" opacity="1" filter="url(#glow)"/>
<circle cx="740.2" cy="299.6" r="3.2" fill="#485269" stroke="#202838" stroke-width="1.4" opacity="0.42"/>
<circle cx="774.7" cy="661.5" r="3.2" fill="#485269" stroke="#202838" stroke-width="1.4" opacity="0.42"/>
<circle cx="1015.6" cy="676.5" r="3.2" fill="#485269" stroke="#202838" stroke-width="1.4" opacity="0.42"/>
<circle cx="950.0" cy="309.1" r="3.2" fill="#485269" stroke="#202838" stroke-width="1.4" opacity="0.42"/>
<circle cx="700.2" cy="269.1" r="3.2" fill="#485269" stroke="#202838" stroke-width="1.4" opacity="0.42"/>
<circle cx="423.3" cy="594.1" r="3.2" fill="#485269" stroke="#202838" stroke-width="1.4" opacity="0.42"/>
<circle cx="799.9" cy="419.0" r="3.2" fill="#485269" stroke="#202838" stroke-width="1.4" opacity="0.42"/>
<circle cx="983.1" cy="674.8" r="3.2" fill="#485269" stroke="#202838" stroke-width="1.4" opacity="0.42"/>
<circle cx="578.3" cy="790.7" r="3.2" fill="#485269" stroke="#202838" stroke-width="1.4" opacity="0.42"/>
<circle cx="772.5" cy="403.2" r="3.2" fill="#485269" stroke="#202838" stroke-width="1.4" opacity="0.42"/>
<circle cx="652.1" cy="668.4" r="3.2" fill="#485269" stroke="#202838" stroke-width="1.4" opacity="0.42"/>
<circle cx="572.0" cy="593.9" r="3.2" fill="#485269" stroke="#202838" stroke-width="1.4" opacity="0.42"/>
<circle cx="734.2" cy="734.5" r="3.2" fill="#485269" stroke="#202838" stroke-width="1.4" opacity="0.42"/>
<circle cx="998.9" cy="647.5" r="3.2" fill="#485269" stroke="#202838" stroke-width="1.4" opacity="0.42"/>
<circle cx="856.6" cy="378.0" r="3.2" fill="#485269" stroke="#202838" stroke-width="1.4" opacity="0.42"/>
<circle cx="896.4" cy="236.3" r="3.2" fill="#485269" stroke="#202838" stroke-width="1.4" opacity="0.42"/>
<circle cx="677.2" cy="776.1" r="3.2" fill="#485269" stroke="#202838" stroke-width="1.4" opacity="0.42"/>
<circle cx="542.0" cy="785.6" r="3.2" fill="#485269" stroke="#202838" stroke-width="1.4" opacity="0.42"/>
<circle cx="739.0" cy="698.0" r="3.2" fill="#485269" stroke="#202838" stroke-width="1.4" opacity="0.42"/>
<circle cx="733.7" cy="323.6" r="3.2" fill="#485269" stroke="#202838" stroke-width="1.4" opacity="0.42"/>
<circle cx="841.2" cy="844.7" r="3.2" fill="#485269" stroke="#202838" stroke-width="1.4" opacity="0.42"/>
<circle cx="737.8" cy="435.6" r="3.2" fill="#485269" stroke="#202838" stroke-width="1.4" opacity="0.42"/>
<circle cx="965.5" cy="446.3" r="3.2" fill="#485269" stroke="#202838" stroke-width="1.4" opacity="0.42"/>
<circle cx="778.1" cy="707.9" r="3.2" fill="#485269" stroke="#202838" stroke-width="1.4" opacity="0.42"/>
<circle cx="977.9" cy="607.9" r="3.2" fill="#485269" stroke="#202838" stroke-width="1.4" opacity="0.42"/>
<circle cx="1004.9" cy="437.5" r="3.2" fill="#485269" stroke="#202838" stroke-width="1.4" opacity="0.42"/>
<circle cx="869.1" cy="356.4" r="3.2" fill="#485269" stroke="#202838" stroke-width="1.4" opacity="0.42"/>
<circle cx="799.9" cy="821.3" r="3.2" fill="#485269" stroke="#202838" stroke-width="1.4" opacity="0.42"/>
<circle cx="953.4" cy="188.9" r="3.2" fill="#485269" stroke="#202838" stroke-width="1.4" opacity="0.42"/>
<circle cx="961.9" cy="828.2" r="3.2" fill="#485269" stroke="#202838" stroke-width="1.4" opacity="0.42"/>
<circle cx="596.5" cy="700.5" r="3.2" fill="#485269" stroke="#202838" stroke-width="1.4" opacity="0.42"/>
<circle cx="782.8" cy="323.9" r="3.2" fill="#485269" stroke="#202838" stroke-width="1.4" opacity="0.42"/>
<circle cx="899.8" cy="829.0" r="3.2" fill="#485269" stroke="#202838" stroke-width="1.4" opacity="0.42"/>
<circle cx="909.8" cy="725.9" r="3.2" fill="#485269" stroke="#202838" stroke-width="1.4" opacity="0.42"/>
<circle cx="887.3" cy="417.7" r="3.2" fill="#485269" stroke="#202838" stroke-width="1.4" opacity="0.42"/>
<circle cx="665.7" cy="364.9" r="3.2" fill="#485269" stroke="#202838" stroke-width="1.4" opacity="0.42"/>
<circle cx="643.4" cy="387.2" r="3.2" fill="#485269" stroke="#202838" stroke-width="1.4" opacity="0.42"/>
<circle cx="738.2" cy="666.3" r="3.2" fill="#485269" stroke="#202838" stroke-width="1.4" opacity="0.42"/>
<circle cx="645.6" cy="287.1" r="3.2" fill="#485269" stroke="#202838" stroke-width="1.4" opacity="0.42"/>
<circle cx="683.9" cy="330.1" r="3.2" fill="#485269" stroke="#202838" stroke-width="1.4" opacity="0.42"/>
<circle cx="989.2" cy="796.6" r="3.2" fill="#485269" stroke="#202838" stroke-width="1.4" opacity="0.42"/>
<circle cx="997.4" cy="703.2" r="3.2" fill="#485269" stroke="#202838" stroke-width="1.4" opacity="0.42"/>
<circle cx="703.3" cy="236.3" r="3.2" fill="#485269" stroke="#202838" stroke-width="1.4" opacity="0.42"/>
<circle cx="612.4" cy="804.8" r="3.2" fill="#485269" stroke="#202838" stroke-width="1.4" opacity="0.42"/>
<circle cx="580.2" cy="812.4" r="3.2" fill="#485269" stroke="#202838" stroke-width="1.4" opacity="0.42"/>
<circle cx="902.3" cy="542.7" r="3.2" fill="#485269" stroke="#202838" stroke-width="1.4" opacity="0.42"/>
<circle cx="424.2" cy="845.0" r="3.2" fill="#485269" stroke="#202838" stroke-width="1.4" opacity="0.42"/>
<circle cx="576.0" cy="844.5" r="3.2" fill="#485269" stroke="#202838" stroke-width="1.4" opacity="0.42"/>
<circle cx="994.3" cy="748.2" r="3.2" fill="#485269" stroke="#202838" stroke-width="1.4" opacity="0.42"/>
<circle cx="478.8" cy="636.7" r="3.2" fill="#485269" stroke="#202838" stroke-width="1.4" opacity="0.42"/>
<circle cx="918.9" cy="363.1" r="3.2" fill="#485269" stroke="#202838" stroke-width="1.4" opacity="0.42"/>
<circle cx="546.8" cy="822.1" r="3.2" fill="#485269" stroke="#202838" stroke-width="1.4" opacity="0.42"/>
<circle cx="799.2" cy="236.3" r="3.2" fill="#485269" stroke="#202838" stroke-width="1.4" opacity="0.42"/>
<circle cx="815.6" cy="391.7" r="3.2" fill="#485269" stroke="#202838" stroke-width="1.4" opacity="0.42"/>
<circle cx="845.4" cy="495.4" r="3.2" fill="#485269" stroke="#202838" stroke-width="1.4" opacity="0.42"/>
<circle cx="829.6" cy="522.8" r="3.2" fill="#485269" stroke="#202838" stroke-width="1.4" opacity="0.42"/>
<circle cx="777.6" cy="799.0" r="3.2" fill="#485269" stroke="#202838" stroke-width="1.4" opacity="0.42"/>
<circle cx="966.7" cy="703.2" r="3.2" fill="#485269" stroke="#202838" stroke-width="1.4" opacity="0.42"/>
<circle cx="793.4" cy="771.7" r="3.2" fill="#485269" stroke="#202838" stroke-width="1.4" opacity="0.42"/>
<circle cx="861.0" cy="566.5" r="3.2" fill="#485269" stroke="#202838" stroke-width="1.4" opacity="0.42"/>
<circle cx="1009.1" cy="831.0" r="3.2" fill="#485269" stroke="#202838" stroke-width="1.4" opacity="0.42"/>
<circle cx="609.4" cy="353.2" r="3.2" fill="#485269" stroke="#202838" stroke-width="1.4" opacity="0.42"/>
<circle cx="750.3" cy="783.2" r="3.2" fill="#485269" stroke="#202838" stroke-width="1.4" opacity="0.42"/>
<circle cx="783.2" cy="356.9" r="3.2" fill="#485269" stroke="#202838" stroke-width="1.4" opacity="0.42"/>
<circle cx="808.8" cy="720.4" r="3.2" fill="#485269" stroke="#202838" stroke-width="1.4" opacity="0.42"/>
<circle cx="564.4" cy="756.4" r="3.2" fill="#485269" stroke="#202838" stroke-width="1.4" opacity="0.42"/>
<circle cx="795.6" cy="488.7" r="3.2" fill="#485269" stroke="#202838" stroke-width="1.4" opacity="0.42"/>
<circle cx="958.8" cy="396.6" r="3.2" fill="#485269" stroke="#202838" stroke-width="1.4" opacity="0.42"/>
<circle cx="919.6" cy="588.5" r="3.2" fill="#485269" stroke="#202838" stroke-width="1.4" opacity="0.42"/>
<circle cx="903.1" cy="390.4" r="3.2" fill="#485269" stroke="#202838" stroke-width="1.4" opacity="0.42"/>
<circle cx="600.2" cy="273.2" r="3.2" fill="#485269" stroke="#202838" stroke-width="1.4" opacity="0.42"/>
<circle cx="929.7" cy="829.0" r="3.2" fill="#485269" stroke="#202838" stroke-width="1.4" opacity="0.42"/>
<circle cx="804.0" cy="683.9" r="3.2" fill="#485269" stroke="#202838" stroke-width="1.4" opacity="0.42"/>
<circle cx="426.0" cy="804.4" r="3.2" fill="#485269" stroke="#202838" stroke-width="1.4" opacity="0.42"/>
<circle cx="667.4" cy="428.9" r="3.2" fill="#485269" stroke="#202838" stroke-width="1.4" opacity="0.42"/>
<circle cx="514.1" cy="712.4" r="3.2" fill="#485269" stroke="#202838" stroke-width="1.4" opacity="0.42"/>
<circle cx="946.1" cy="785.0" r="3.2" fill="#485269" stroke="#202838" stroke-width="1.4" opacity="0.42"/>
<circle cx="621.1" cy="409.6" r="3.2" fill="#485269" stroke="#202838" stroke-width="1.4" opacity="0.42"/>
<circle cx="692.0" cy="299.6" r="3.2" fill="#485269" stroke="#202838" stroke-width="1.4" opacity="0.42"/>
<text x="878.7" y="681.7" text-anchor="start" fill="#f8f2df" stroke="#0f1218" stroke-width="4" paint-order="stroke" font-family="Segoe UI, Arial, sans-serif" font-size="15" font-weight="700">Savagery</text>
<text x="829.8" y="550.1" text-anchor="start" fill="#f8f2df" stroke="#0f1218" stroke-width="4" paint-order="stroke" font-family="Segoe UI, Arial, sans-serif" font-size="15" font-weight="700">Catlike Agility</text>
<text x="725.8" y="453.6" text-anchor="start" fill="#f8f2df" stroke="#0f1218" stroke-width="4" paint-order="stroke" font-family="Segoe UI, Arial, sans-serif" font-size="15" font-weight="700">Blur</text>
<text x="853.9" y="441.0" text-anchor="start" fill="#f8f2df" stroke="#0f1218" stroke-width="4" paint-order="stroke" font-family="Segoe UI, Arial, sans-serif" font-size="15" font-weight="700">Eagle Eye</text>
<text x="906.0" y="643.9" text-anchor="start" fill="#f8f2df" stroke="#0f1218" stroke-width="4" paint-order="stroke" font-family="Segoe UI, Arial, sans-serif" font-size="15" font-weight="700">Frenzy Charge Duration</text>
<text x="701.0" y="411.3" text-anchor="start" fill="#f8f2df" stroke="#0f1218" stroke-width="4" paint-order="stroke" font-family="Segoe UI, Arial, sans-serif" font-size="15" font-weight="700">Evasion</text>
<text x="799.1" y="510.3" text-anchor="start" fill="#f8f2df" stroke="#0f1218" stroke-width="4" paint-order="stroke" font-family="Segoe UI, Arial, sans-serif" font-size="15" font-weight="700">Evasion and Reduced Move...</text>
</g>
</g>
</svg>